<?xml version="1.0" encoding="UTF-8"?>
<svg width="128px" height="73px" viewBox="0 0 128 73" version="1.1" xmlns="http://www.w3.org/2000/svg" xmlns:xlink="http://www.w3.org/1999/xlink">
    <!-- Generator: Sketch 49.3 (51167) - http://www.bohemiancoding.com/sketch -->
    <title>Pokemon</title>
    <desc>Created with Sketch.</desc>
    <defs></defs>
    <g id="Page-1" stroke="none" stroke-width="1" fill="none" fill-rule="evenodd">
        <g id="Desktop-HD-Copy-5" transform="translate(-664.000000, -18.000000)" fill="#FFFFFF" fill-rule="nonzero">
            <g id="Pokemon" transform="translate(664.000000, 18.000000)">
                <path d="M114.43771,22.3206739 C111.892699,24.7662276 107.828006,27.9288986 105.264686,29.5470093 C102.353486,31.3857715 98.3803399,33.7945499 94.2424086,36.0378398 C93.6748163,36.3504294 93.4551031,37.0859343 93.7663634,37.6375629 C95.3959027,40.4876443 96.0184234,43.8709667 96.640944,46.8865367 C96.9522043,48.3759341 97.153608,49.9021067 97.2634646,51.4282793 C97.2634646,51.4282793 97.702891,58.5259014 98.1056984,64.6489795 C98.7648379,65.3293215 99.6986189,65.6786863 100.94366,64.7041423 C103.671765,62.5527906 104.422452,63.9870251 104.422452,63.9870251 C104.422452,63.9870251 104.80695,64.1892889 105.099901,63.7847612 C105.411161,63.3802336 106.39987,63.1411945 107.0407,63.9870251 C107.68153,64.8512433 109.219523,64.0238003 109.219523,64.0238003 C109.219523,64.0238003 109.970209,63.9134746 110.482873,65.402872 C110.757515,66.1935397 111.672986,66.6532302 112.460292,66.8922693 C113.302526,67.1680837 113.906737,67.9219762 113.998284,68.8229696 C114.016593,69.0252335 114.034903,69.2274973 114.053212,69.4297612 C114.108141,70.312367 114.163069,71.286911 113.833499,72.1143539 C113.705333,72.4637188 113.48562,72.7395331 113.137741,72.9050217 C112.954646,72.9969598 112.808171,72.9785722 112.606767,72.9785722 C112.405364,72.9785722 112.20396,72.9785722 111.984247,72.9785722 C110.57442,72.9969598 109.182904,72.9785722 107.773078,72.9785722 C106.985772,72.9785722 106.198467,72.9785722 105.429471,72.9785722 C104.513999,72.9785722 103.598528,72.9785722 102.683056,72.9785722 C101.657728,72.9785722 100.61409,72.9785722 99.5887623,72.9785722 C98.4535776,72.9785722 97.3000835,72.9785722 96.1648988,72.9785722 C94.938167,72.9785722 93.6931257,72.9785722 92.4663939,72.9785722 C91.1481149,72.9785722 89.8298359,72.9785722 88.5115569,72.9785722 C87.1200402,72.9785722 85.7468329,72.9785722 84.3553162,72.9785722 C82.9088712,72.9785722 81.4624262,72.9785722 80.0342907,72.9785722 C78.5512268,72.9785722 77.0681629,72.9785722 75.5667897,72.9785722 C74.0471069,72.9785722 72.5274242,72.9785722 71.0077415,72.9785722 C69.4697493,72.9785722 67.9317572,72.9785722 66.393765,72.9785722 C64.8557729,72.9785722 63.2994713,72.9785722 61.7614792,72.9785722 C60.223487,72.9785722 58.6854949,72.9785722 57.1475027,72.9785722 C55.62782,72.9785722 54.1081373,72.9785722 52.5884546,72.9785722 C51.1053907,72.9785722 49.6040174,72.9785722 48.1209536,72.9785722 C46.6745086,72.9785722 45.2280636,72.9785722 43.7816186,72.9785722 C42.3901019,72.9785722 40.9985852,72.9785722 39.6070684,72.9785722 C38.2887895,72.9785722 36.952201,72.9785722 35.6339221,72.9785722 C34.3888808,72.9785722 33.1438395,72.9785722 31.8987983,72.9785722 C30.7453042,72.9785722 29.59181,72.9785722 28.4383159,72.9785722 C27.3946784,72.9785722 26.3510409,72.9785722 25.2890939,72.9785722 C24.355313,72.9785722 23.421532,72.9785722 22.5060605,72.9785722 C21.7004456,72.9785722 20.9131401,72.9785722 20.1075251,72.9785722 C19.4483856,72.9785722 18.7892461,72.9785722 18.1301066,72.9785722 C17.251254,72.9785722 16.3724013,72.9785722 15.4935487,72.9969598 C14.9991941,73.0153474 14.4316017,72.9601846 14.102032,72.5556569 C13.8640094,72.2430673 13.7358434,71.8569272 13.6809151,71.4707872 C13.5344396,70.5881813 13.6076773,69.6688002 13.6992245,68.7861944 C13.7907716,67.9035885 14.3949829,67.1313084 15.2372166,66.8554941 C16.0245222,66.5980674 16.9399937,66.1567645 17.2146351,65.3660967 C17.7272992,63.895087 18.4779858,63.9870251 18.4779858,63.9870251 C18.4779858,63.9870251 20.015978,64.8144681 20.656808,63.9502498 C21.2976381,63.0860316 22.3046568,63.3250707 22.5976076,63.747986 C22.908868,64.1525137 23.2750566,63.9502498 23.2750566,63.9502498 C23.2750566,63.9502498 24.0257432,62.5160153 26.7538483,64.6673671 C27.7059387,65.4212596 28.4749348,65.3844843 29.079146,65.0351195 C30.3058778,61.0082303 30.525591,51.685706 30.7086853,49.9021067 C31.1298022,45.8200547 32.3382246,41.1679863 34.1142393,37.6927258 C34.1142393,37.6927258 34.1142393,37.6927258 34.1142393,37.6743382 C34.4438091,37.0307714 34.2057865,36.221716 33.5649564,35.8723512 C29.5002629,33.647449 25.6003542,31.2938334 22.7440831,29.4918464 C20.1990723,27.8737357 16.1160693,24.7110647 13.5710585,22.265511 C8.26132368,17.1721398 -2.02857617,2.57236799 0.351649771,0.0348761668 C0.351649771,0.0348761668 22.7257737,-1.50968407 44.4041392,25.2259181 C45.4294673,26.4946641 47.2237915,26.8808041 48.6885459,26.1636869 C49.2012099,25.9062602 49.7321834,25.6672211 50.2448475,25.428182 C53.8151864,23.8836217 57.6601668,22.9642407 61.541766,22.7068139 C65.9909576,22.412612 70.476768,22.945853 74.7245559,24.3433123 C76.262548,24.8581657 77.7822307,25.4833449 79.2286757,26.2004621 C80.6934302,26.935967 82.4877543,26.5498269 83.5313919,25.281081 C105.228067,-1.52807169 127.63881,0.0164885449 127.63881,0.0164885449 C130.055654,2.62753085 119.747445,17.2273026 114.43771,22.3206739 Z" id="Shape"></path>
                <path d="M17.7547486,67.0647709 C18.1228295,64.6426843 19.0430319,65.3893426 19.5951533,66.1360008 C19.8160019,66.4455909 20.2945072,66.4273797 20.4969517,66.0995785 C21.9324674,63.7867589 22.4661848,64.9704855 22.6134172,65.5168208 C22.6502253,65.6625102 22.7606496,65.7717773 22.907882,65.8264108 C23.0919224,65.8810444 23.2759629,65.8264108 23.4047913,65.6807214 C25.4292365,63.0947342 25.7421053,65.0069078 25.7789134,66.154212 C25.7789134,66.4273797 26.0917822,66.5730691 26.3310349,66.4273797 C28.5579247,64.915852 28.0242073,68.9587334 28.0242073,68.9587334 C29.1468542,69.1590563 29.8093999,70.3792052 30.1406728,71.1987082 C30.2879052,71.5629317 30.0118444,71.9453665 29.6253594,71.9453665 L15.601475,71.9453665 C13.6322418,67.9753298 17.7547486,67.0647709 17.7547486,67.0647709 Z M110.934443,67.0647709 C110.566362,64.6426843 109.64616,65.3893426 109.094038,66.1360008 C108.87319,66.4455909 108.394684,66.4273797 108.19224,66.0995785 C106.756724,63.7867589 106.223007,64.9704855 106.075774,65.5168208 C106.038966,65.6625102 105.928542,65.7717773 105.781309,65.8264108 C105.597269,65.8810444 105.413229,65.8264108 105.2844,65.6807214 C103.259955,63.0947342 102.947086,65.0069078 102.910278,66.154212 C102.910278,66.4273797 102.597409,66.5730691 102.358157,66.4273797 C100.131267,64.915852 100.664984,68.9587334 100.664984,68.9587334 C99.5423373,69.1590563 98.8797915,70.3792052 98.5485187,71.1987082 C98.4012863,71.5629317 98.677347,71.9453665 99.063832,71.9453665 L113.087716,71.9453665 C115.05695,67.9753298 110.934443,67.0647709 110.934443,67.0647709 Z M117.983193,5.27424565 C117.228627,10.336953 115.535455,20.9358583 111.118483,24.6145162 C108.486705,26.7998575 105.10036,28.9669876 102.615813,30.5149377 C101.23551,31.370863 99.9288223,32.3724778 98.5669227,33.2466143 C97.8307608,33.7201049 97.0577908,34.1571732 96.2664168,34.5396079 C95.7142953,34.7945644 94.6100524,35.4865891 94.0027189,35.3226885 C93.7634662,35.268055 93.5610217,35.1041544 93.3585772,34.958465 C93.1561327,34.8127756 92.9352841,34.6670861 92.6960315,34.6306638 C92.2727384,34.5578191 92.1071019,34.8127756 92.0150817,35.1587879 C91.9046574,35.5958562 91.9782736,36.0693468 92.1991222,36.4699927 C94.7020727,40.91352 96.376841,45.939805 96.8001341,51.0025123 C96.9657706,52.9875307 96.7265179,54.9543379 96.8369422,56.921145 C96.9473665,58.7968963 97.113003,60.6726476 97.5547001,62.4937653 C97.6651244,62.967256 97.7939527,63.4407466 97.9411851,63.896026 C98.0148013,64.1327713 98.3460742,65.225442 97.8307608,65.3529202 C97.7387406,65.3711314 97.6467203,65.3529202 97.5731041,65.334709 C95.1621739,64.6973178 93.0273043,64.0052931 90.59797,65.0797526 C88.9600097,65.8081997 88.1686357,67.0101374 87.2300292,68.4852427 C86.8803523,69.0497892 86.5674835,69.6325469 86.2914228,70.2335158 C86.1625945,70.5431058 86.0521702,70.8526958 85.9233419,71.1622858 C85.9049378,71.2351305 85.7761095,71.9817888 85.7761095,71.9817888 C85.7761095,71.9817888 80.972653,72 79.9604303,72 C77.9727932,71.9817888 75.985156,71.9817888 73.9975188,71.9817888 C72.91168,71.9817888 71.8258412,71.9635776 70.7400024,71.9635776 L70.8872347,70.6523729 C70.9240428,70.6523729 70.9608509,70.6523729 71.0160631,70.6523729 C72.4883869,70.6523729 74.1263472,70.1060375 75.6538831,68.3941869 C75.8011155,68.2302863 75.7827115,67.9753298 75.617075,67.8114292 C75.4514386,67.6657398 75.1937819,67.6839509 75.0281455,67.8478515 C71.5497805,71.7814659 67.4640818,68.7584104 67.0407887,68.4306092 C66.7279199,68.0845968 64.5930504,65.9538891 60.1944829,69.0680004 C59.0166239,69.9057146 57.8203608,70.2335158 56.6793098,70.0331928 C54.6364605,69.6689693 53.311369,67.7750068 53.292965,67.7567956 C53.1641367,67.5746839 52.90648,67.5200503 52.7224395,67.6475286 C52.538399,67.7750068 52.4831869,68.0299633 52.6120152,68.2120751 C52.6672274,68.303131 54.1395512,70.4156276 56.5136734,70.8344846 C56.7897341,70.8891182 57.0657948,70.9073294 57.3418555,70.9073294 C57.4890879,70.9073294 57.6179162,70.9073294 57.7651486,70.8891182 L57.8019567,71.9089441 C56.5320774,71.9089441 55.2621981,71.8907329 53.9739148,71.8725218 C51.2685197,71.8360994 48.5815287,71.7814659 45.8761337,71.7450435 C44.845507,71.7268323 43.7964763,71.69041 42.7842537,71.69041 C42.8394658,69.5961246 41.3487379,67.3379386 39.7843939,66.0631561 C37.8703729,64.4969949 35.0913616,64.3330943 32.7724516,64.8976408 C32.2387342,65.025119 30.7848144,65.8810444 30.3799254,65.2618643 C30.1038647,64.8247961 30.987259,64.0052931 31.1160873,63.6046472 C31.9442695,61.01866 32.0915018,58.1230827 32.3675626,55.4460397 C32.7356435,51.8584377 32.5884111,48.2890469 33.2325528,44.7378673 C33.5086135,43.2263396 33.9319066,41.7148118 34.5576443,40.3125512 C34.8705131,39.6023152 35.238594,38.9102905 35.6618871,38.2546881 C36.011564,37.7083528 36.4532612,37.2348622 36.7845341,36.6703157 C37.0421907,36.2696698 37.8151607,34.6670861 36.8213421,34.6124526 C36.0483721,34.5760302 35.8643317,35.2498438 34.5392402,35.0859432 C32.919684,34.8856203 31.3185318,33.8657943 29.9934404,32.9916578 C28.6683489,32.1357325 27.4352777,31.1705401 26.0917822,30.3328259 C23.6072358,28.7848758 19.3743048,26.235311 16.9633745,23.8132243 C13.0985245,19.9160324 10.4115335,6.16659335 11.1108873,4.14515265 C11.1108873,4.14515265 23.9017005,3.81735145 44.2749815,27.673994 C45.3056082,28.8759317 47.0355887,29.2401552 48.4895085,28.5481305 C48.9680137,28.3113852 49.464923,28.0928511 49.9618323,27.8743169 C53.4401974,26.3992115 59.0166239,25.3065409 62.7894537,25.0697956 C67.1144049,24.7784168 71.4761643,25.3065409 75.598671,26.654168 C77.1078029,27.1458698 79.3899049,28.1474846 80.8070165,28.8395093 C82.2425323,29.5497453 84.1933614,28.3660187 85.1871799,27.1458698 C99.5791454,9.38997177 111.983474,5.01928917 116.584486,4.05409676 C117.486284,3.81735145 118.112022,4.38189796 117.983193,5.27424565 Z M51.7286209,54.9907602 C51.7286209,51.476003 48.8391854,48.6168481 45.2872042,48.6168481 C41.7352229,48.6168481 38.8457874,51.476003 38.8457874,54.9907602 C38.8457874,58.5055175 41.7352229,61.3646723 45.2872042,61.3646723 C48.8391854,61.3464612 51.7286209,58.5055175 51.7286209,54.9907602 Z M65.7525054,58.7058404 L64.2433735,58.7058404 L62.7342415,58.7058404 C61.9980796,58.7058404 61.5563825,59.5071322 61.9428675,60.1081011 L62.6422213,61.2189829 C63.4335954,62.2752312 65.0347475,62.2752312 65.8261216,61.2189829 L66.5254754,60.1081011 C66.9303645,59.5071322 66.4886673,58.7058404 65.7525054,58.7058404 Z M89.9170202,54.9907602 C89.9170202,51.476003 87.0275847,48.6168481 83.4756035,48.6168481 C79.9236222,48.6168481 77.0341867,51.476003 77.0341867,54.9907602 C77.0341867,58.5055175 79.9236222,61.3646723 83.4756035,61.3646723 C87.0459888,61.3464612 89.9170202,58.5055175 89.9170202,54.9907602 Z" id="Shape"></path>
                <path d="M32.0046707,71.8227719 C32.0046707,71.8227719 29.7788372,70.1036598 30.0179763,67.6933582 C30.0179763,67.6933582 38.7557524,61.8625551 41.6990033,71.8404947 L32.0046707,71.8227719 Z M96.9953293,71.8227719 C96.9953293,71.8227719 99.2211628,70.1036598 98.9820237,67.6933582 C98.9820237,67.6933582 90.2442476,61.8625551 87.3009967,71.8404947 L96.9953293,71.8227719 Z M70.2485369,72 L70.2853275,71.1315825 C70.3037228,70.812572 70.082979,70.5467299 69.7702586,70.4758387 C69.0344459,70.3340563 67.7467736,69.9618773 67.0661469,69.1111827 C66.0727997,67.8883091 63.3318973,67.7288038 61.9154578,69.1820739 C61.0508779,70.085937 60.0575307,70.3695019 59.4136946,70.4581159 C59.0273929,70.5112843 58.7514631,70.8302948 58.7514631,71.2024737 L58.7514631,71.9468316 L70.2485369,72 Z" id="Shape"></path>
                <path d="M49.7813911,52.5 C49.7813911,53.890625 48.4805781,55 46.8906956,55 C45.2827462,55 44,53.875 44,52.5 C44,51.109375 45.300813,50 46.8906956,50 C48.4805781,50 49.7813911,51.125 49.7813911,52.5 Z M81.1093044,50 C79.501355,50 78.2186089,51.125 78.2186089,52.5 C78.2186089,53.890625 79.5194219,55 81.1093044,55 C82.7172538,55 84,53.875 84,52.5 C84,51.125 82.699187,50 81.1093044,50 Z" id="Shape"></path>
                <path d="M48.3905544,56 C48.3905544,56.0730594 48.4086242,56.1643836 48.4086242,56.2374429 C48.4086242,58.3196347 46.7462012,60 44.6862423,60 C42.7889117,60 41.2349076,58.5753425 41,56.7305936 C41.97577,57.0045662 43.1864476,57.1324201 44.4694045,57.0410959 C46.0053388,56.9315068 47.3967146,56.5479452 48.3905544,56 Z M77.6094456,56 C77.6094456,56.0730594 77.5913758,56.1643836 77.5913758,56.2374429 C77.5913758,58.3196347 79.2537988,60 81.3137577,60 C83.2110883,60 84.7650924,58.5753425 85,56.7305936 C84.02423,57.0045662 82.8135524,57.1324201 81.5305955,57.0410959 C79.9946612,56.9315068 78.6032854,56.5479452 77.6094456,56 Z" id="Shape"></path>
            </g>
        </g>
    </g>
</svg>